<svg display="none" xmlns="http://www.w3.org/2000/svg" xmlns:xlink="http://www.w3.org/1999/xlink">
	<symbol id="user">
		<circle cx="8.459" cy="4.189" r="3.689" />
 		<path d="M.5 15.338h15M.5 15.84c0-3.405 4.347-5.927 7.714-5.838 3.219.085 7.286 2.433 7.286 5.838" />
	</symbol>
	<symbol id="favorites">
		<path d="M7.9 3.095C6.7-2.521-2.591 1.904 1.76 7.602 6.112 13.3 8.4 15.49 8.4 15.49" />
		<path d="M7.894 3.095c1.2-5.616 10.836-1.191 6.485 4.507C10.027 13.3 7.7 15.5 7.7 15.5" />
		<path d="M7.391 2.708h1.013l-.02.533H7.39v-.533Z" />
	</symbol>
	<symbol id="bag">
		<path d="M1.255 7.566a2.5 2.5 0 0 1 2.492-2.697h8.506a2.5 2.5 0 0 1 2.492 2.697l-.525 6.631a2.5 2.5 0 0 1-2.492 2.303H4.272a2.5 2.5 0 0 1-2.492-2.303l-.525-6.631Z" />
		<path d="M4 9.5S3.783 1 8 1s4 8.5 4 8.5" />
	</symbol>
</svg>

